<?xml version="1.0" encoding="UTF-8" ?>
<svg version="1.1" width="3200" height="3200" xmlns="http://www.w3.org/2000/svg" shape-rendering="crispEdges">
<rect x="1100" y="100" width="700" height="600" fill="#4D271B" />
<rect x="2000" y="100" width="100" height="800" fill="#4D271B" />
<rect x="800" y="200" width="300" height="100" fill="#4D271B" />
<rect x="1800" y="200" width="200" height="500" fill="#4D271B" />
<rect x="900" y="300" width="200" height="600" fill="#4D271B" />
<rect x="2100" y="300" width="200" height="500" fill="#4D271B" />
<rect x="800" y="400" width="100" height="900" fill="#4D271B" />
<rect x="2300" y="400" width="100" height="800" fill="#4D271B" />
<rect x="700" y="500" width="100" height="2100" fill="#4D271B" />
<rect x="2400" y="500" width="100" height="800" fill="#4D271B" />
<rect x="600" y="600" width="100" height="700" fill="#4D271B" />
<rect x="2600" y="600" width="100" height="200" fill="#4D271B" />
<rect x="1100" y="700" width="100" height="200" fill="#EFAD81" />
<rect x="1200" y="700" width="700" height="100" fill="#4D271B" />
<rect x="1900" y="700" width="100" height="300" fill="#EFAD81" />
<rect x="2500" y="700" width="100" height="200" fill="#4D271B" />
<rect x="1200" y="800" width="100" height="100" fill="#4D271B" />
<rect x="1300" y="800" width="200" height="100" fill="#EFAD81" />
<rect x="1500" y="800" width="300" height="100" fill="#4D271B" />
<rect x="1800" y="800" width="100" height="300" fill="#EFAD81" />
<rect x="2100" y="800" width="100" height="200" fill="#4D271B" />
<rect x="2200" y="800" width="100" height="300" fill="#EFAD81" />
<rect x="900" y="900" width="100" height="300" fill="#4D271B" />
<rect x="1000" y="900" width="100" height="200" fill="#EFAD81" />
<rect x="1100" y="900" width="100" height="100" fill="#4D271B" />
<rect x="1200" y="900" width="200" height="100" fill="#EFAD81" />
<rect x="1400" y="900" width="300" height="100" fill="#4D271B" />
<rect x="1700" y="900" width="100" height="200" fill="#EFAD81" />
<rect x="2000" y="900" width="100" height="100" fill="#EFAD81" />
<rect x="500" y="1000" width="100" height="100" fill="#4D271B" />
<rect x="1100" y="1000" width="100" height="100" fill="#EFAD81" />
<rect x="1200" y="1000" width="200" height="100" fill="#4D271B" />
<rect x="1400" y="1000" width="300" height="100" fill="#EFAD81" />
<rect x="1900" y="1000" width="200" height="100" fill="#4D271B" />
<rect x="2100" y="1000" width="100" height="100" fill="#EFAD81" />
<rect x="2500" y="1000" width="100" height="1600" fill="#4D271B" />
<rect x="1000" y="1100" width="600" height="100" fill="#5648ED" />
<rect x="1600" y="1100" width="100" height="200" fill="#EFAD81" />
<rect x="1700" y="1100" width="600" height="100" fill="#5648ED" />
<rect x="2600" y="1100" width="100" height="200" fill="#4D271B" />
<rect x="500" y="1200" width="100" height="100" fill="#4D271B" />
<rect x="900" y="1200" width="100" height="100" fill="#EFAD81" />
<rect x="1000" y="1200" width="100" height="500" fill="#5648ED" />
<rect x="1100" y="1200" width="400" height="100" fill="#EFAD81" />
<rect x="1500" y="1200" width="100" height="400" fill="#5648ED" />
<rect x="1700" y="1200" width="100" height="400" fill="#5648ED" />
<rect x="1800" y="1200" width="400" height="100" fill="#EFAD81" />
<rect x="2200" y="1200" width="100" height="500" fill="#5648ED" />
<rect x="2300" y="1200" width="100" height="100" fill="#EFAD81" />
<rect x="2700" y="1200" width="100" height="100" fill="#4D271B" />
<rect x="600" y="1300" width="100" height="200" fill="#EFAD81" />
<rect x="800" y="1300" width="200" height="100" fill="#5648ED" />
<rect x="1100" y="1300" width="200" height="100" fill="#FFFFFF" />
<rect x="1300" y="1300" width="200" height="100" fill="#000000" />
<rect x="1600" y="1300" width="100" height="100" fill="#5648ED" />
<rect x="1800" y="1300" width="200" height="100" fill="#FFFFFF" />
<rect x="2000" y="1300" width="200" height="100" fill="#000000" />
<rect x="2300" y="1300" width="200" height="100" fill="#5648ED" />
<rect x="2600" y="1300" width="100" height="200" fill="#EFAD81" />
<rect x="500" y="1400" width="100" height="200" fill="#EFAD81" />
<rect x="800" y="1400" width="100" height="1300" fill="#4D271B" />
<rect x="900" y="1400" width="100" height="300" fill="#EFAD81" />
<rect x="1100" y="1400" width="400" height="200" fill="#EFAD81" />
<rect x="1600" y="1400" width="100" height="100" fill="#EFAD81" />
<rect x="1800" y="1400" width="400" height="200" fill="#EFAD81" />
<rect x="2300" y="1400" width="100" height="400" fill="#EFAD81" />
<rect x="2400" y="1400" width="100" height="1300" fill="#4D271B" />
<rect x="2700" y="1400" width="100" height="200" fill="#EFAD81" />
<rect x="600" y="1500" width="100" height="900" fill="#4D271B" />
<rect x="1600" y="1500" width="100" height="200" fill="#E8705B" />
<rect x="2600" y="1500" width="100" height="900" fill="#4D271B" />
<rect x="1100" y="1600" width="400" height="100" fill="#5648ED" />
<rect x="1500" y="1600" width="100" height="100" fill="#E8705B" />
<rect x="1700" y="1600" width="100" height="100" fill="#E8705B" />
<rect x="1800" y="1600" width="400" height="100" fill="#5648ED" />
<rect x="900" y="1700" width="100" height="1000" fill="#4D271B" />
<rect x="1000" y="1700" width="300" height="100" fill="#EFAD81" />
<rect x="1300" y="1700" width="700" height="200" fill="#4D271B" />
<rect x="2000" y="1700" width="300" height="100" fill="#EFAD81" />
<rect x="500" y="1800" width="100" height="300" fill="#4D271B" />
<rect x="1000" y="1800" width="200" height="100" fill="#EFAD81" />
<rect x="1200" y="1800" width="100" height="1100" fill="#4D271B" />
<rect x="2000" y="1800" width="100" height="1100" fill="#4D271B" />
<rect x="2100" y="1800" width="200" height="100" fill="#EFAD81" />
<rect x="2300" y="1800" width="100" height="900" fill="#4D271B" />
<rect x="2700" y="1800" width="100" height="400" fill="#4D271B" />
<rect x="1000" y="1900" width="100" height="900" fill="#4D271B" />
<rect x="1100" y="1900" width="100" height="100" fill="#EFAD81" />
<rect x="1300" y="1900" width="100" height="100" fill="#000000" />
<rect x="1400" y="1900" width="200" height="100" fill="#FFFFFF" />
<rect x="1600" y="1900" width="100" height="100" fill="#000000" />
<rect x="1700" y="1900" width="200" height="100" fill="#FFFFFF" />
<rect x="1900" y="1900" width="100" height="100" fill="#000000" />
<rect x="2100" y="1900" width="100" height="100" fill="#EFAD81" />
<rect x="2200" y="1900" width="100" height="900" fill="#4D271B" />
<rect x="400" y="2000" width="100" height="100" fill="#4D271B" />
<rect x="1100" y="2000" width="100" height="800" fill="#4D271B" />
<rect x="1300" y="2000" width="100" height="300" fill="#EFAD81" />
<rect x="1400" y="2000" width="100" height="100" fill="#000000" />
<rect x="1500" y="2000" width="300" height="100" fill="#E8705B" />
<rect x="1800" y="2000" width="100" height="100" fill="#000000" />
<rect x="1900" y="2000" width="100" height="300" fill="#EFAD81" />
<rect x="2100" y="2000" width="100" height="800" fill="#4D271B" />
<rect x="2800" y="2000" width="100" height="100" fill="#4D271B" />
<rect x="1400" y="2100" width="500" height="100" fill="#EFAD81" />
<rect x="1400" y="2200" width="100" height="200" fill="#EFAD81" />
<rect x="1500" y="2200" width="300" height="100" fill="#4D271B" />
<rect x="1800" y="2200" width="100" height="200" fill="#EFAD81" />
<rect x="1300" y="2300" width="100" height="600" fill="#4D271B" />
<rect x="1500" y="2300" width="300" height="100" fill="#EFAD81" />
<rect x="1900" y="2300" width="100" height="600" fill="#4D271B" />
<rect x="1400" y="2400" width="500" height="600" fill="#4D271B" />
<rect x="1500" y="3000" width="100" height="100" fill="#4D271B" />
</svg>