<?xml version="1.0" encoding="UTF-8" ?>
<svg version="1.1" width="12800" height="12800" viewBox="0 0 12800 12800" xmlns="http://www.w3.org/2000/svg" shape-rendering="crispEdges">
<rect x="0" y="0" width="12800" height="800" fill="#D5D7E1" />
<rect x="0" y="800" width="7200" height="2000" fill="#D5D7E1" />
<rect x="7200" y="800" width="400" height="3600" fill="#FFFFFF" />
<rect x="7600" y="800" width="800" height="400" fill="#D5D7E1" />
<rect x="8400" y="800" width="400" height="1600" fill="#FFFFFF" />
<rect x="8800" y="800" width="4000" height="400" fill="#D5D7E1" />
<rect x="7600" y="1200" width="400" height="3200" fill="#FFFFFF" />
<rect x="8000" y="1200" width="400" height="800" fill="#D5D7E1" />
<rect x="8800" y="1200" width="400" height="3200" fill="#FFFFFF" />
<rect x="9200" y="1200" width="3600" height="800" fill="#D5D7E1" />
<rect x="8000" y="2000" width="400" height="2400" fill="#FFFFFF" />
<rect x="9200" y="2000" width="800" height="400" fill="#FFFFFF" />
<rect x="10000" y="2000" width="2800" height="800" fill="#D5D7E1" />
<rect x="8400" y="2400" width="400" height="400" fill="#000000" />
<rect x="9200" y="2400" width="400" height="400" fill="#000000" />
<rect x="9600" y="2400" width="400" height="6400" fill="#FFFFFF" />
<rect x="0" y="2800" width="6800" height="400" fill="#D5D7E1" />
<rect x="6800" y="2800" width="400" height="1200" fill="#FFFFFF" />
<rect x="8400" y="2800" width="400" height="1600" fill="#FFFFFF" />
<rect x="9200" y="2800" width="400" height="7600" fill="#FFFFFF" />
<rect x="10000" y="2800" width="400" height="800" fill="#FFFFFF" />
<rect x="10400" y="2800" width="800" height="400" fill="#000000" />
<rect x="11200" y="2800" width="1600" height="10000" fill="#D5D7E1" />
<rect x="0" y="3200" width="6400" height="1200" fill="#D5D7E1" />
<rect x="6400" y="3200" width="400" height="400" fill="#FFFFFF" />
<rect x="10400" y="3200" width="800" height="400" fill="#FFFFFF" />
<rect x="6400" y="3600" width="400" height="1600" fill="#D5D7E1" />
<rect x="10000" y="3600" width="1200" height="800" fill="#D5D7E1" />
<rect x="6800" y="4000" width="400" height="400" fill="#D5D7E1" />
<rect x="0" y="4400" width="4000" height="800" fill="#D5D7E1" />
<rect x="4000" y="4400" width="2400" height="400" fill="#000000" />
<rect x="6800" y="4400" width="2400" height="400" fill="#000000" />
<rect x="10000" y="4400" width="400" height="3600" fill="#FFFFFF" />
<rect x="10400" y="4400" width="800" height="1600" fill="#D5D7E1" />
<rect x="4000" y="4800" width="400" height="2000" fill="#000000" />
<rect x="4400" y="4800" width="800" height="1600" fill="#FFFFFF" />
<rect x="5200" y="4800" width="1200" height="2000" fill="#000000" />
<rect x="6800" y="4800" width="400" height="2000" fill="#000000" />
<rect x="7200" y="4800" width="800" height="1600" fill="#FFFFFF" />
<rect x="8000" y="4800" width="1200" height="2000" fill="#000000" />
<rect x="0" y="5200" width="2400" height="400" fill="#D5D7E1" />
<rect x="2400" y="5200" width="400" height="2400" fill="#FFFFFF" />
<rect x="2800" y="5200" width="1200" height="400" fill="#000000" />
<rect x="6400" y="5200" width="400" height="400" fill="#000000" />
<rect x="0" y="5600" width="2000" height="400" fill="#D5D7E1" />
<rect x="2000" y="5600" width="400" height="2800" fill="#FFFFFF" />
<rect x="2800" y="5600" width="400" height="800" fill="#000000" />
<rect x="3200" y="5600" width="800" height="800" fill="#FFFFFF" />
<rect x="6400" y="5600" width="400" height="1600" fill="#FFFFFF" />
<rect x="0" y="6000" width="1600" height="2400" fill="#D5D7E1" />
<rect x="1600" y="6000" width="400" height="2800" fill="#FFFFFF" />
<rect x="10400" y="6000" width="400" height="1200" fill="#FFFFFF" />
<rect x="10800" y="6000" width="400" height="6800" fill="#D5D7E1" />
<rect x="2800" y="6400" width="800" height="400" fill="#D5D7E1" />
<rect x="3600" y="6400" width="400" height="2400" fill="#FFFFFF" />
<rect x="4400" y="6400" width="800" height="400" fill="#000000" />
<rect x="7200" y="6400" width="800" height="400" fill="#000000" />
<rect x="2800" y="6800" width="400" height="1200" fill="#D5D7E1" />
<rect x="3200" y="6800" width="400" height="2000" fill="#FFFFFF" />
<rect x="4000" y="6800" width="2400" height="400" fill="#FFFFFF" />
<rect x="6800" y="6800" width="2400" height="1600" fill="#FFFFFF" />
<rect x="4000" y="7200" width="1200" height="800" fill="#FFFFFF" />
<rect x="5200" y="7200" width="1600" height="400" fill="#000000" />
<rect x="10400" y="7200" width="400" height="5600" fill="#D5D7E1" />
<rect x="2400" y="7600" width="400" height="5200" fill="#D5D7E1" />
<rect x="5200" y="7600" width="1600" height="400" fill="#FFFFFF" />
<rect x="2800" y="8000" width="400" height="2400" fill="#FFFFFF" />
<rect x="4000" y="8000" width="400" height="400" fill="#FFFFFF" />
<rect x="4400" y="8000" width="2000" height="400" fill="#D5D7E1" />
<rect x="6400" y="8000" width="400" height="400" fill="#FFFFFF" />
<rect x="10000" y="8000" width="400" height="4800" fill="#D5D7E1" />
<rect x="0" y="8400" width="1200" height="400" fill="#D5D7E1" />
<rect x="1200" y="8400" width="400" height="800" fill="#FFFFFF" />
<rect x="2000" y="8400" width="400" height="4400" fill="#D5D7E1" />
<rect x="4000" y="8400" width="5200" height="1600" fill="#343235" />
<rect x="0" y="8800" width="800" height="4000" fill="#D5D7E1" />
<rect x="800" y="8800" width="400" height="400" fill="#FFFFFF" />
<rect x="1600" y="8800" width="400" height="4000" fill="#D5D7E1" />
<rect x="3200" y="8800" width="400" height="1200" fill="#D5D7E1" />
<rect x="3600" y="8800" width="400" height="4000" fill="#343235" />
<rect x="9600" y="8800" width="400" height="1200" fill="#D5D7E1" />
<rect x="800" y="9200" width="800" height="3600" fill="#D5D7E1" />
<rect x="3200" y="10000" width="400" height="400" fill="#FFFFFF" />
<rect x="4000" y="10000" width="400" height="2800" fill="#343235" />
<rect x="4400" y="10000" width="400" height="2800" fill="#D5D7E1" />
<rect x="4800" y="10000" width="4400" height="2800" fill="#343235" />
<rect x="9600" y="10000" width="400" height="400" fill="#FFFFFF" />
<rect x="2800" y="10400" width="800" height="2400" fill="#D5D7E1" />
<rect x="9200" y="10400" width="800" height="2400" fill="#D5D7E1" />
</svg>
