<?xml version="1.0" encoding="UTF-8" ?>
<svg version="1.1" viewBox="150 650 1800 700" width="1800" height="700" xmlns="http://www.w3.org/2000/svg" shape-rendering="crispEdges">
  <rect x="500" y="700" width="600" height="100" fill="#E70B20" />
  <rect x="1200" y="700" width="600" height="100" fill="#E70B20" />
  <rect x="500" y="800" width="100" height="500" fill="#E70B20" />
  <rect x="600" y="800" width="200" height="400" fill="#FFCD00" />
  <rect x="800" y="800" width="200" height="400" fill="#003087" />
  <rect x="1000" y="800" width="100" height="500" fill="#E70B20" />
  <rect x="1200" y="800" width="100" height="500" fill="#E70B20" />
  <rect x="1300" y="800" width="200" height="400" fill="#FFCD00" />
  <rect x="1500" y="800" width="200" height="400" fill="#003087" />
  <rect x="1700" y="800" width="100" height="500" fill="#E70B20" />
  <rect x="200" y="900" width="300" height="100" fill="#E70B20" />
  <rect x="1100" y="900" width="100" height="100" fill="#E70B20" />
  <rect x="200" y="1000" width="100" height="200" fill="#E70B20" />
  <rect x="600" y="1200" width="400" height="100" fill="#E70B20" />
  <rect x="1300" y="1200" width="400" height="100" fill="#E70B20" />
</svg>
