<?xml version="1.0" encoding="UTF-8" ?>
<svg version="1.1" width="10000" height="10000" viewBox="0 0 10000 10000" xmlns="http://www.w3.org/2000/svg" shape-rendering="crispEdges">
<rect x="0" y="0" width="10000" height="3700" fill="#FFCD00" />
<rect x="0" y="3700" width="2400" height="900" fill="#FFCD00" />
<rect x="2400" y="3700" width="2700" height="400" fill="#E70B20" />
<rect x="5100" y="3700" width="400" height="900" fill="#FFCD00" />
<rect x="5500" y="3700" width="100" height="900" fill="#FFB609" />
<rect x="5600" y="3700" width="2700" height="400" fill="#E70B20" />
<rect x="8300" y="3700" width="1700" height="1300" fill="#FFCD00" />
<rect x="2400" y="4100" width="400" height="2300" fill="#E70B20" />
<rect x="2800" y="4100" width="900" height="1900" fill="#FFCD00" />
<rect x="3700" y="4100" width="900" height="1900" fill="#003087" />
<rect x="4600" y="4100" width="500" height="2300" fill="#E70B20" />
<rect x="5600" y="4100" width="400" height="2300" fill="#E70B20" />
<rect x="6000" y="4100" width="900" height="1900" fill="#FFCD00" />
<rect x="6900" y="4100" width="900" height="1900" fill="#003087" />
<rect x="7800" y="4100" width="500" height="2300" fill="#E70B20" />
<rect x="0" y="4600" width="1000" height="400" fill="#FFCD00" />
<rect x="1000" y="4600" width="1400" height="400" fill="#E70B20" />
<rect x="5100" y="4600" width="500" height="400" fill="#E70B20" />
<rect x="0" y="5000" width="1000" height="2600" fill="#003087" />
<rect x="1000" y="5000" width="500" height="900" fill="#E70B20" />
<rect x="1500" y="5000" width="900" height="2600" fill="#003087" />
<rect x="5100" y="5000" width="400" height="2600" fill="#003087" />
<rect x="5500" y="5000" width="100" height="100" fill="#1F317D" />
<rect x="8300" y="5000" width="1700" height="2600" fill="#003087" />
<rect x="5500" y="5100" width="100" height="1300" fill="#27317B" />
<rect x="1000" y="5900" width="500" height="1700" fill="#003087" />
<rect x="2800" y="6000" width="1800" height="400" fill="#E70B20" />
<rect x="6000" y="6000" width="1800" height="400" fill="#E70B20" />
<rect x="2400" y="6400" width="2700" height="1200" fill="#003087" />
<rect x="5500" y="6400" width="2800" height="1200" fill="#003087" />
<rect x="0" y="7600" width="10000" height="2400" fill="#C8102E" />
</svg>
